<svg width="2200" height="850" viewBox="0 0 2200 850" fill="none" xmlns="http://www.w3.org/2000/svg">
<path d="M770.61 461.25H825.01V487.5H737.5V322.42H770.61V461.25Z" fill="white"/>
<path d="M863.08 481.24C852.99 475.65 845.07 467.72 839.31 457.47C833.55 447.22 830.68 435.4 830.68 421.99C830.68 408.58 833.64 396.77 839.55 386.52C845.46 376.27 853.54 368.35 863.79 362.75C874.04 357.16 885.47 354.35 898.08 354.35C910.69 354.35 922.12 357.15 932.37 362.75C942.62 368.35 950.7 376.27 956.61 386.52C962.52 396.77 965.48 408.6 965.48 421.99C965.48 435.38 962.44 447.22 956.37 457.47C950.3 467.72 942.1 475.64 931.77 481.24C921.44 486.84 909.89 489.64 897.12 489.64C884.35 489.64 873.15 486.84 863.06 481.24H863.08ZM914.05 456.4C919.33 453.48 923.55 449.11 926.7 443.27C929.85 437.44 931.43 430.34 931.43 421.98C931.43 409.53 928.16 399.95 921.62 393.25C915.08 386.55 907.08 383.2 897.62 383.2C888.16 383.2 880.24 386.55 873.85 393.25C867.46 399.95 864.27 409.53 864.27 421.98C864.27 434.43 867.38 444.02 873.61 450.72C879.84 457.42 887.68 460.77 897.14 460.77C903.13 460.77 908.77 459.31 914.05 456.39V456.4Z" fill="white"/>
<path d="M987.24 386.4C992.76 376.23 1000.4 368.35 1010.18 362.75C1019.95 357.16 1031.15 354.35 1043.76 354.35C1060 354.35 1073.44 358.41 1084.08 366.53C1094.72 374.65 1101.85 386.04 1105.48 400.7H1069.77C1067.88 395.02 1064.69 390.57 1060.19 387.34C1055.7 384.11 1050.14 382.49 1043.52 382.49C1034.06 382.49 1026.57 385.92 1021.05 392.78C1015.53 399.64 1012.77 409.37 1012.77 421.99C1012.77 434.61 1015.53 444.1 1021.05 450.96C1026.57 457.82 1034.06 461.25 1043.52 461.25C1056.92 461.25 1065.67 455.26 1069.77 443.28H1105.48C1101.85 457.47 1094.68 468.74 1083.96 477.1C1073.24 485.46 1059.84 489.64 1043.75 489.64C1031.13 489.64 1019.94 486.84 1010.17 481.24C1000.39 475.65 992.75 467.76 987.23 457.59C981.71 447.42 978.95 435.56 978.95 422C978.95 408.44 981.71 396.58 987.23 386.41L987.24 386.4Z" fill="white"/>
<path d="M1122.16 386.28C1127.44 376.03 1134.61 368.15 1143.68 362.63C1152.74 357.11 1162.87 354.35 1174.07 354.35C1183.84 354.35 1192.4 356.32 1199.73 360.26C1207.06 364.2 1212.93 369.17 1217.35 375.16V356.48H1250.7V487.5H1217.35V468.34C1213.09 474.49 1207.22 479.57 1199.73 483.59C1192.24 487.61 1183.61 489.62 1173.83 489.62C1162.79 489.62 1152.74 486.78 1143.68 481.11C1134.61 475.43 1127.44 467.43 1122.16 457.11C1116.88 446.79 1114.24 434.92 1114.24 421.52C1114.24 408.12 1116.88 396.53 1122.16 386.28ZM1212.62 401.3C1209.46 395.55 1205.21 391.13 1199.85 388.06C1194.49 384.99 1188.73 383.45 1182.59 383.45C1176.45 383.45 1170.76 384.95 1165.56 387.94C1160.36 390.94 1156.14 395.31 1152.91 401.07C1149.68 406.83 1148.06 413.65 1148.06 421.53C1148.06 429.41 1149.68 436.31 1152.91 442.22C1156.14 448.13 1160.4 452.67 1165.68 455.82C1170.96 458.98 1176.6 460.55 1182.59 460.55C1188.58 460.55 1194.49 459.01 1199.85 455.94C1205.21 452.86 1209.46 448.45 1212.62 442.7C1215.77 436.95 1217.35 430.05 1217.35 422.01C1217.35 413.97 1215.77 407.07 1212.62 401.32V401.3Z" fill="white"/>
<path d="M1313.84 312.49V487.5H1280.73V312.49H1313.84Z" fill="white"/>
<path d="M1370.01 483.25C1360.79 479.31 1353.49 473.63 1348.13 466.22C1342.77 458.81 1340.01 450.06 1339.85 439.97H1375.32C1375.79 446.75 1378.2 452.11 1382.53 456.05C1386.86 459.99 1392.82 461.96 1400.39 461.96C1407.96 461.96 1414.18 460.11 1418.6 456.4C1423.01 452.7 1425.22 447.85 1425.22 441.86C1425.22 436.98 1423.72 432.95 1420.73 429.8C1417.73 426.65 1413.99 424.16 1409.5 422.35C1405.01 420.54 1398.82 418.53 1390.93 416.32C1380.21 413.17 1371.5 410.05 1364.8 406.98C1358.1 403.91 1352.34 399.26 1347.54 393.03C1342.73 386.8 1340.33 378.49 1340.33 368.08C1340.33 358.31 1342.77 349.79 1347.66 342.54C1352.54 335.29 1359.4 329.73 1368.24 325.87C1377.07 322.01 1387.16 320.08 1398.51 320.08C1415.54 320.08 1429.37 324.22 1440.02 332.5C1450.66 340.78 1456.53 352.33 1457.64 367.15H1421.22C1420.9 361.47 1418.5 356.78 1414.01 353.08C1409.52 349.38 1403.56 347.52 1396.15 347.52C1389.68 347.52 1384.52 349.18 1380.66 352.49C1376.79 355.8 1374.87 360.61 1374.87 366.92C1374.87 371.34 1376.33 375 1379.25 377.92C1382.17 380.84 1385.79 383.21 1390.13 385.02C1394.46 386.83 1400.57 388.92 1408.46 391.29C1419.18 394.45 1427.93 397.6 1434.71 400.75C1441.49 403.91 1447.32 408.64 1452.21 414.94C1457.09 421.25 1459.54 429.52 1459.54 439.77C1459.54 448.6 1457.25 456.8 1452.68 464.37C1448.1 471.94 1441.41 477.97 1432.58 482.46C1423.75 486.95 1413.26 489.2 1401.13 489.2C1389.62 489.2 1379.25 487.23 1370.03 483.29L1370.01 483.25Z" fill="white"/>
<path d="M1524.33 383.68V447.06C1524.33 451.48 1525.39 454.67 1527.52 456.64C1529.65 458.61 1533.23 459.6 1538.28 459.6H1553.65V487.51H1532.84C1504.93 487.51 1490.98 473.95 1490.98 446.83V383.68H1475.37V356.48H1490.98V324.08H1524.33V356.48H1553.66V383.68H1524.33Z" fill="white"/>
<path d="M1574.58 386.28C1579.86 376.03 1587.03 368.15 1596.1 362.63C1605.16 357.11 1615.29 354.35 1626.49 354.35C1636.26 354.35 1644.82 356.32 1652.15 360.26C1659.48 364.2 1665.35 369.17 1669.77 375.16V356.48H1703.12V487.5H1669.77V468.34C1665.51 474.49 1659.64 479.57 1652.15 483.59C1644.66 487.61 1636.03 489.62 1626.25 489.62C1615.21 489.62 1605.16 486.78 1596.1 481.11C1587.03 475.43 1579.86 467.43 1574.58 457.11C1569.3 446.79 1566.66 434.92 1566.66 421.52C1566.66 408.12 1569.3 396.53 1574.58 386.28ZM1665.04 401.3C1661.88 395.55 1657.63 391.13 1652.27 388.06C1646.91 384.99 1641.15 383.45 1635.01 383.45C1628.87 383.45 1623.18 384.95 1617.98 387.94C1612.78 390.94 1608.56 395.31 1605.33 401.07C1602.1 406.83 1600.48 413.65 1600.48 421.53C1600.48 429.41 1602.1 436.31 1605.33 442.22C1608.56 448.13 1612.82 452.67 1618.1 455.82C1623.38 458.98 1629.02 460.55 1635.01 460.55C1641 460.55 1646.91 459.01 1652.27 455.94C1657.63 452.86 1661.88 448.45 1665.04 442.7C1668.19 436.95 1669.77 430.05 1669.77 422.01C1669.77 413.97 1668.19 407.07 1665.04 401.32V401.3Z" fill="white"/>
<path d="M1732.92 386.4C1738.44 376.23 1746.08 368.35 1755.86 362.75C1765.63 357.16 1776.83 354.35 1789.44 354.35C1805.68 354.35 1819.12 358.41 1829.76 366.53C1840.4 374.65 1847.53 386.04 1851.16 400.7H1815.45C1813.56 395.02 1810.37 390.57 1805.87 387.34C1801.38 384.11 1795.82 382.49 1789.2 382.49C1779.74 382.49 1772.25 385.92 1766.73 392.78C1761.21 399.64 1758.45 409.37 1758.45 421.99C1758.45 434.61 1761.21 444.1 1766.73 450.96C1772.25 457.82 1779.74 461.25 1789.2 461.25C1802.6 461.25 1811.35 455.26 1815.45 443.28H1851.16C1847.53 457.47 1840.36 468.74 1829.64 477.1C1818.92 485.46 1805.52 489.64 1789.43 489.64C1776.81 489.64 1765.62 486.84 1755.85 481.24C1746.07 475.65 1738.43 467.76 1732.91 457.59C1727.39 447.42 1724.63 435.56 1724.63 422C1724.63 408.44 1727.39 396.58 1732.91 386.41L1732.92 386.4Z" fill="white"/>
<path d="M1946 487.5L1901.54 431.69V487.5H1868.43V312.49H1901.54V412.06L1945.53 356.48H1988.57L1930.86 422.23L1989.04 487.5H1946Z" fill="white"/>
<path d="M631.5 212.5H468.5C465.186 212.5 462.5 215.186 462.5 218.5V381.5C462.5 384.814 465.186 387.5 468.5 387.5H631.5C634.814 387.5 637.5 384.814 637.5 381.5V218.5C637.5 215.186 634.814 212.5 631.5 212.5Z" fill="url(#paint0_radial_7_8)"/>
<path d="M368.5 487.5H581.5C584.81 487.5 587.5 484.81 587.5 481.5V418.5C587.5 415.19 584.81 412.5 581.5 412.5H443.5C440.19 412.5 437.5 409.81 437.5 406.5V268.5C437.5 265.19 434.81 262.5 431.5 262.5H368.5C365.19 262.5 362.5 265.19 362.5 268.5V481.5C362.5 484.81 365.19 487.5 368.5 487.5Z" fill="url(#paint1_linear_7_8)"/>
<path fill-rule="evenodd" clip-rule="evenodd" d="M337.5 280.31V394.7C337.5 397.63 335.13 400 332.2 400H217.81C213.09 400 210.72 394.29 214.06 390.95L328.45 276.56C331.79 273.22 337.5 275.59 337.5 280.31Z" fill="url(#paint2_linear_7_8)"/>
<path fill-rule="evenodd" clip-rule="evenodd" d="M450 632.19V517.8C450 514.87 452.37 512.5 455.3 512.5H569.69C574.41 512.5 576.78 518.21 573.44 521.55L459.05 635.94C455.71 639.28 450 636.91 450 632.19Z" fill="url(#paint3_linear_7_8)"/>
<defs>
<radialGradient id="paint0_radial_7_8" cx="0" cy="0" r="1" gradientUnits="userSpaceOnUse" gradientTransform="translate(430.54 418.55) scale(379.8)">
<stop offset="0.07" stop-color="#1B58F4"/>
<stop offset="0.71" stop-color="#74FFE6"/>
</radialGradient>
<linearGradient id="paint1_linear_7_8" x1="680.05" y1="175.01" x2="349.79" y2="497.12" gradientUnits="userSpaceOnUse">
<stop offset="0.32" stop-color="#4979F6"/>
<stop offset="0.99" stop-color="#4D33BD"/>
</linearGradient>
<linearGradient id="paint2_linear_7_8" x1="368.45" y1="301.25" x2="233.89" y2="435.82" gradientUnits="userSpaceOnUse">
<stop offset="0.22" stop-color="#4D29B4"/>
<stop offset="0.36" stop-color="#4C33BC"/>
<stop offset="0.58" stop-color="#4B4ED2"/>
<stop offset="0.87" stop-color="#4979F6"/>
</linearGradient>
<linearGradient id="paint3_linear_7_8" x1="545.02" y1="485.27" x2="423.12" y2="607.17" gradientUnits="userSpaceOnUse">
<stop offset="0.22" stop-color="#4D29B4"/>
<stop offset="0.36" stop-color="#4C33BC"/>
<stop offset="0.58" stop-color="#4B4ED2"/>
<stop offset="0.87" stop-color="#4979F6"/>
</linearGradient>
</defs>
</svg>
