<svg id="Layer_1" data-name="Layer 1" xmlns="http://www.w3.org/2000/svg" viewBox="0 0 728 162.86"><defs><style>.cls-1{fill:#7b42bc;fill-rule:evenodd;}</style></defs><title>terraformlogo-freelogovectors.net</title><polygon points="229.46 61.11 203.24 61.11 203.24 45.45 273.44 45.45 273.44 61.11 247.22 61.11 247.22 139.41 229.46 139.41 229.46 61.11 229.46 61.11"/><path d="M681.2,433V385c0-3.65-1.56-5.5-5.5-5.5s-11.65,2.54-17.89,5.81V433H640.58V364.26H653.7l1.71,5.78a68.1,68.1,0,0,1,27.47-7.18c6.64,0,10.72,2.68,13,7.32a66.67,66.67,0,0,1,27.64-7.32c11.42,0,15.5,8,15.5,20.3V433H721.8V385c0-3.65-1.56-5.5-5.5-5.5a44.89,44.89,0,0,0-17.9,5.81V433Zm-47.35-54.34a131.77,131.77,0,0,0-18.18,10V433h-17.2V364.26H613l1.12,7.62a76.13,76.13,0,0,1,18.15-9l1.59,15.78Zm-74.16-1.12c-9.16,0-12.68,4.08-12.68,11.84v18.45c0,7.76,3.52,11.87,12.68,11.87s12.7-4.11,12.7-11.87V389.36C572.39,381.71,568.87,377.52,559.69,377.52Zm0,56.81c-23.54,0-30-13-30-27V389.92c0-14,6.34-27.06,29.88-27.06s29.9,13,29.9,27.06v17.43C589.59,421.33,583.32,434.33,559.69,434.33Zm-33.53-85.71a48.38,48.38,0,0,0-9.89-1.14c-6.75,0-7.73,3-7.73,8.18v8.6H526l-1,13.68H508.58v55h-17.2v-55h-11V364.26h11v-9.58c0-14.24,6.62-21.3,21.84-21.3a54.38,54.38,0,0,1,14.8,2l-1.86,13.26ZM456.08,407H443.5c-5.64,0-7.21,1.57-7.21,6.79,0,4.66,1.57,7,7,7a27.15,27.15,0,0,0,12.95-3.52Zm17.2,26h-14.1l-1.26-4.66a36.92,36.92,0,0,1-20.44,6.06c-12.56,0-17.92-8.6-17.92-20.44,0-14,6.08-19.32,20-19.32h16.5v-7.25c0-7.59-2.1-10.27-13.1-10.27a97.47,97.47,0,0,0-19,2.09l-2.12-13.09a88.36,88.36,0,0,1,23.54-3.24c21.58,0,28,7.6,28,24.79Zm-57.52-54.34a131.77,131.77,0,0,0-18.18,10V433h-17.2V364.26H394.9l1.12,7.62a75.9,75.9,0,0,1,18.06-9l1.68,15.78Zm-42,0a131.41,131.41,0,0,0-18.2,10V433h-17.2V364.26h14.52l1.14,7.62a75.58,75.58,0,0,1,18-9Zm-84.09,12.7h21.86v-3.41c0-6.47-2-11-10.44-11s-11.42,4.5-11.42,11v3.41ZM303,420.24A71.71,71.71,0,0,0,324,417L326.64,430a72.75,72.75,0,0,1-25.3,4.38c-21.56,0-29-10-29-26.52V389.64c0-14.52,6.48-26.78,28.48-26.78s26.94,12.82,26.94,27.61v14.69h-38v3.52c0,8.32,2.87,11.56,13.31,11.56Z" transform="translate(-11 -293.57)"/><path class="cls-1" d="M60.41,430.72l44.51,25.71V405L60.41,379.31ZM11,293.57V345l44.51,25.71V319.28ZM109.79,348v51.41l44.54-25.71V322.26ZM60.41,322.26,104.92,348v51.41L60.41,373.67Z" transform="translate(-11 -293.57)"/></svg>